<?xml version="1.0" encoding="UTF-8"?><svg id="a" xmlns="http://www.w3.org/2000/svg" viewBox="0 0 600 600"><defs><style>.b{fill:#48f0e6;}.b,.c{stroke-width:10px;}.b,.c,.d,.e{stroke-miterlimit:10;}.b,.e{stroke:#48f0e6;}.c{fill:#4881f0;}.c,.d{stroke:#4881f0;}.d,.e{fill:none;stroke-width:50px;}</style></defs><circle class="b" cx="282.51" cy="423.96" r="25.85"/><path class="b" d="M294.94,376.07h-24.62c-5.48,0-9.89-4.52-9.75-10.01,.58-23.03-1.54-57.71,3.73-70.98,6.16-15.51,19.7-23.97,27.37-31.43,1.09-1.06,2.19-2.13,3.32-3.25,3.78-3.78,21.88-17.63,6.55-37.64-4.79-6.25-12.99-9.92-22.52-10.07-.2,0-.41,0-.61,0-7.36,0-14.43,2.13-19.81,5.82-3.59,2.46-8.36,2.3-11.73-.46l-19.5-15.96c-4.65-3.8-4.82-10.89-.3-14.84,13.9-12.13,32.85-18.97,52.66-18.66,23.08,.37,43.79,10.34,56.82,27.35,12.92,16.87,17.74,36.54,13.93,56.89-3.04,16.26-12.28,26.13-24.9,38.75-1.27,1.27-2.52,2.49-3.75,3.69-6.2,6.03-13.25,9.36-15.93,16.1-3.18,8-.74,38.31-1.21,55.2-.15,5.28-4.46,9.5-9.74,9.5Z"/><circle class="e" cx="280" cy="310" r="204.04"/><circle class="c" cx="302.51" cy="413.96" r="25.85"/><path class="c" d="M314.94,366.07h-24.62c-5.48,0-9.89-4.52-9.75-10.01,.58-23.03-1.54-57.71,3.73-70.98,6.16-15.51,19.7-23.97,27.37-31.43,1.09-1.06,2.19-2.13,3.32-3.25,3.78-3.78,21.88-17.63,6.55-37.64-4.79-6.25-12.99-9.92-22.52-10.07-.2,0-.41,0-.61,0-7.36,0-14.43,2.13-19.81,5.82-3.59,2.46-8.36,2.3-11.73-.46l-19.5-15.96c-4.65-3.8-4.82-10.89-.3-14.84,13.9-12.13,32.85-18.97,52.66-18.66,23.08,.37,43.79,10.34,56.82,27.35,12.92,16.87,17.74,36.54,13.93,56.89-3.04,16.26-12.28,26.13-24.9,38.75-1.27,1.27-2.52,2.49-3.75,3.69-6.2,6.03-13.25,9.36-15.93,16.1-3.18,8-.74,38.31-1.21,55.2-.15,5.28-4.46,9.5-9.74,9.5Z"/><circle class="d" cx="300" cy="300" r="204.04"/></svg>