<?xml version="1.0" encoding="utf-8"?>
<!-- Generator: Adobe Illustrator 26.0.3, SVG Export Plug-In . SVG Version: 6.00 Build 0)  -->
<svg version="1.1" id="Layer_1" xmlns="http://www.w3.org/2000/svg" xmlns:xlink="http://www.w3.org/1999/xlink" x="0px" y="0px"
	 viewBox="0 0 1366 768" style="enable-background:new 0 0 1366 768;" xml:space="preserve">
<style type="text/css">
	.st0{fill:#48F0E6;}
	.st1{fill:#4481F0;}
</style>
<g>
	<path class="st0" d="M837.77,375h-36.35c-2.44,0-4.42,1.98-4.42,4.42v182.17c0,2.44-1.98,4.42-4.42,4.42H543.42
		c-2.44,0-4.42-1.98-4.42-4.42V379.42c0-2.44-1.98-4.42-4.42-4.42h-36.35c-3.93,0-5.9-4.76-3.12-7.54l169.77-139.77
		c1.72-1.72,4.52-1.72,6.24,0l169.77,139.77C843.67,370.24,841.7,375,837.77,375z"/>
</g>
<g>
	<path class="st1" d="M867.27,357.5h-36.35c-2.44,0-4.42,1.98-4.42,4.42v182.17c0,2.44-1.98,4.42-4.42,4.42H572.92
		c-2.44,0-4.42-1.98-4.42-4.42V361.92c0-2.44-1.98-4.42-4.42-4.42h-36.35c-3.93,0-5.9-4.76-3.12-7.54l169.77-139.77
		c1.72-1.72,4.52-1.72,6.24,0l169.77,139.77C873.17,352.74,871.2,357.5,867.27,357.5z"/>
</g>
</svg>
