<svg id="Layer_1" data-name="Layer 1" xmlns="http://www.w3.org/2000/svg" viewBox="0 0 600 600">
  <defs>
    <style>
      .cls-1 {
        fill: #48f0e6;
      }

      .cls-2 {
        fill: #4881f0;
      }
    </style>
  </defs>
  <path class="cls-1" d="M465.81,272.17H425.42a8.21,8.21,0,0,1-5.81-14l26.31-26.31a17.76,17.76,0,0,0,0-25.14l-47-47a17.76,17.76,0,0,0-25.14,0L347.45,186a8.21,8.21,0,0,1-14-5.81V143a17.77,17.77,0,0,0-17.77-17.77H249.15A17.77,17.77,0,0,0,231.38,143v37.21a8.21,8.21,0,0,1-14,5.81l-26.31-26.31a17.76,17.76,0,0,0-25.14,0l-47,47a17.76,17.76,0,0,0,0,25.14l26.31,26.31a8.21,8.21,0,0,1-5.81,14H99A14.59,14.59,0,0,0,84.4,286.76v69.69a17.78,17.78,0,0,0,17.78,17.77h37.21a8.21,8.21,0,0,1,5.81,14l-26.31,26.31a17.76,17.76,0,0,0,0,25.14l47,47a17.76,17.76,0,0,0,25.14,0l26.31-26.31a8.21,8.21,0,0,1,14,5.81v37.21a17.78,17.78,0,0,0,17.77,17.78h66.51a17.78,17.78,0,0,0,17.77-17.78V466.21a8.21,8.21,0,0,1,14-5.81l26.31,26.31a17.76,17.76,0,0,0,25.14,0l47-47a17.76,17.76,0,0,0,0-25.14l-26.31-26.31a8.21,8.21,0,0,1,5.81-14h37.21a17.77,17.77,0,0,0,17.77-17.77V286.76A14.59,14.59,0,0,0,465.81,272.17ZM282.4,379.09a55.89,55.89,0,1,1,55.89-55.89A55.89,55.89,0,0,1,282.4,379.09Z"/>
  <path class="cls-2" d="M485.81,262.17H445.42a8.21,8.21,0,0,1-5.81-14l26.31-26.31a17.76,17.76,0,0,0,0-25.14l-47-47a17.76,17.76,0,0,0-25.14,0L367.45,176a8.21,8.21,0,0,1-14-5.81V133a17.77,17.77,0,0,0-17.77-17.77H269.15A17.77,17.77,0,0,0,251.38,133v37.21a8.21,8.21,0,0,1-14,5.81l-26.31-26.31a17.76,17.76,0,0,0-25.14,0l-47,47a17.76,17.76,0,0,0,0,25.14l26.31,26.31a8.21,8.21,0,0,1-5.81,14H119a14.59,14.59,0,0,0-14.59,14.59v69.69a17.78,17.78,0,0,0,17.78,17.77h37.21a8.21,8.21,0,0,1,5.81,14l-26.31,26.31a17.76,17.76,0,0,0,0,25.14l47,47a17.76,17.76,0,0,0,25.14,0l26.31-26.31a8.21,8.21,0,0,1,14,5.81v37.21a17.78,17.78,0,0,0,17.77,17.78h66.51a17.78,17.78,0,0,0,17.77-17.78V456.21a8.21,8.21,0,0,1,14-5.81l26.31,26.31a17.76,17.76,0,0,0,25.14,0l47-47a17.76,17.76,0,0,0,0-25.14l-26.31-26.31a8.21,8.21,0,0,1,5.81-14h37.21a17.77,17.77,0,0,0,17.77-17.77V276.76A14.59,14.59,0,0,0,485.81,262.17ZM302.4,369.09a55.89,55.89,0,1,1,55.89-55.89A55.89,55.89,0,0,1,302.4,369.09Z"/>
</svg>
