<?xml version="1.0" standalone="no"?>
<!DOCTYPE svg PUBLIC "-//W3C//DTD SVG 20010904//EN"
 "http://www.w3.org/TR/2001/REC-SVG-20010904/DTD/svg10.dtd">
<svg version="1.0" xmlns="http://www.w3.org/2000/svg"
 width="840.000000pt" height="859.000000pt" viewBox="0 0 840.000000 859.000000"
 preserveAspectRatio="xMidYMid meet">

<g transform="translate(0.000000,859.000000) scale(0.100000,-0.100000)"
fill="#000000" stroke="none">
<path d="M2516 8544 c-184 -44 -333 -181 -398 -364 -22 -62 -23 -79 -26 -424
-3 -295 -6 -361 -18 -373 -21 -21 -20 -275 1 -297 12 -11 15 -44 15 -156 0
-112 -3 -145 -15 -156 -13 -13 -15 -60 -15 -299 0 -239 2 -286 15 -299 11 -10
15 -36 15 -89 0 -54 -4 -78 -15 -87 -13 -11 -15 -56 -15 -296 0 -238 2 -285
15 -298 13 -13 15 -298 15 -2448 0 -2676 -4 -2504 62 -2638 45 -94 150 -195
252 -246 l80 -39 1700 -3 c1681 -2 1701 -2 1761 18 124 41 241 141 304 260 66
124 61 -86 63 2738 1 2141 3 2565 15 2569 11 4 13 90 13 473 0 407 -2 469 -15
474 -13 5 -15 99 -15 768 0 713 -1 768 -19 830 -51 186 -219 343 -408 383
-101 22 -3278 20 -3367 -1z m622 -256 c7 -7 12 -24 12 -38 0 -86 60 -183 137
-221 l48 -23 861 0 861 1 47 22 c25 13 60 39 76 59 31 38 60 115 60 162 0 48
8 50 256 50 199 0 241 -3 293 -19 116 -36 212 -134 245 -250 14 -49 16 -423
16 -3742 0 -3649 0 -3688 -20 -3750 -35 -115 -132 -211 -243 -244 -75 -22
-3108 -23 -3182 -1 -115 35 -209 129 -245 246 -20 65 -20 82 -18 3770 l3 3705
23 50 c52 113 119 177 227 214 54 18 84 20 296 21 170 0 238 -3 247 -12z"/>
</g>
</svg>