<svg id="Layer_1" data-name="Layer 1" xmlns="http://www.w3.org/2000/svg" viewBox="0 0 600 600">
  <defs>
    <style>
      .cls-1 {
        fill: #205bba;
      }

      .cls-2 {
        fill: #4881f0;
      }

      .cls-3 {
        fill: #48f0e6;
      }
    </style>
  </defs>
  <g>
    <path class="cls-1" d="M537.54,217.62,102.09,384.38a.76.76,0,0,1-1-.76l25.21-83.12Z"/>
    <path class="cls-2" d="M540.7,215.57,59.92,238.28a1.23,1.23,0,0,0-.76,2.14L218.6,383.19a3.31,3.31,0,0,0,3.72.46L541,216.55A.52.52,0,0,0,540.7,215.57Z"/>
    <path class="cls-3" d="M512.55,223.57l-379,82.5-31.83,78.31c0,.17-.84-.29-.86-.46l10.18-97,401.22-64.3C512.94,222.48,513.2,223.41,512.55,223.57Z"/>
  </g>
</svg>
