<svg id="Layer_1" data-name="Layer 1" xmlns="http://www.w3.org/2000/svg" viewBox="0 0 600 600">
  <defs>
    <style>
      .cls-1 {
        fill: #205bba;
      }

      .cls-2 {
        fill: #4881f0;
      }

      .cls-3 {
        fill: #48f0e6;
      }
    </style>
  </defs>
  <g>
    <rect class="cls-1" x="337.95" y="320.69" width="17.23" height="51.76" rx="8.62" transform="translate(-143.55 346.57) rotate(-45)"/>
    <path class="cls-2" d="M478.21,478.21h0a24.27,24.27,0,0,1-34.33,0l-96.49-96.49c-9.48-9.48-1.62-17,7.86-26.47h0c9.48-9.48,17-17.34,26.47-7.86l96.49,96.49A24.27,24.27,0,0,1,478.21,478.21Z"/>
    <path class="cls-3" d="M247.05,144.68a102.36,102.36,0,1,1-72.39,30,101.74,101.74,0,0,1,72.39-30m0-30a132.37,132.37,0,1,0,93.6,38.77,131.94,131.94,0,0,0-93.6-38.77Z"/>
    <g>
      <path class="cls-2" d="M198.21,232a12.58,12.58,0,1,1-12.58,12.57A12.59,12.59,0,0,1,198.21,232m0-11.39a24,24,0,1,0,24,24,24,24,0,0,0-24-24Z"/>
      <rect class="cls-2" x="215.55" y="237.55" width="104.31" height="13.96" rx="4.36"/>
      <rect class="cls-2" x="310.53" y="237.55" width="9.32" height="29.67" rx="4.66"/>
      <rect class="cls-2" x="297.23" y="238.1" width="9.32" height="26.08" rx="4.66"/>
      <rect class="cls-2" x="283.93" y="237.55" width="9.32" height="35.98" rx="4.66"/>
      <rect class="cls-2" x="270.63" y="237.55" width="9.32" height="29.67" rx="4.66"/>
    </g>
  </g>
</svg>
